<svg xmlns="http://www.w3.org/2000/svg" xmlns:xlink="http://www.w3.org/1999/xlink" version="1.1" x="0px" y="0px" viewBox="0 0 100 125" style="enable-background:new 0 0 100 100;" xml:space="preserve">
  <g fill="#ffffff" stroke="#ffffff">
    <path d="M50,99C23,99,1,77,1,50S23,1,50,1s49,22,49,49S77,99,50,99z M50,10.2C28,10.2,10.2,28,10.2,50C10.2,72,28,89.8,50,89.8   C72,89.8,89.8,72,89.8,50C89.8,28,72,10.2,50,10.2z"/>
    <path d="M44.2,66.2c-1.2,0-2.4-0.5-3.3-1.4L28.3,51.8c-1.8-1.8-1.8-4.8,0.1-6.6c1.8-1.8,4.8-1.8,6.6,0.1l9.4,9.6l21.5-20.2   c1.9-1.8,4.8-1.7,6.6,0.2c1.8,1.9,1.7,4.8-0.2,6.6L47.4,64.9C46.5,65.7,45.4,66.2,44.2,66.2z"/>
  </g>
</svg>
